STARTFONT 2.1
FONT -DEC-Terminal-Medium-R-Normal--19-140-100-100-C-110-iso8859-7
SIZE 14 100 100
FONTBOUNDINGBOX 11 20 0 -5

STARTPROPERTIES 24
FOUNDRY "Monotype"
FAMILY_NAME "VT"
WEIGHT_NAME "Regular"
SLANT "R"
SETWIDTH_NAME "Normal"
ADD_STYLE_NAME ""
PIXEL_SIZE 19
POINT_SIZE 140
RESOLUTION_X 100
RESOLUTION_Y 100
SPACING "C"
AVERAGE_WIDTH 110
CHARSET_REGISTRY "iso8859"
CHARSET_ENCODING "7"
FACE_NAME "VT ISO Latin Greek"
_DEC_DEVICE_FONTNAMES "PS=vt-isolatingreek"
COPYRIGHT "Copyright (c) 1993 Monotype Typography Ltd."
CAP_HEIGHT 11
X_HEIGHT 8
WEIGHT 10
QUAD_WIDTH 11
DEFAULT_CHAR 160
FONT_DESCENT 5
FONT_ASCENT 15
ENDPROPERTIES

CHARS 185

STARTCHAR space
ENCODING 32
SWIDTH 568 0
DWIDTH 11 0
BBX 11 20 0 -5
BITMAP
0000
0000
0000
0000
0000
0000
0000
0000
0000
0000
0000
0000
0000
0000
0000
0000
0000
0000
0000
0000
ENDCHAR

STARTCHAR exclam
ENCODING 33
SWIDTH 568 0
DWIDTH 11 0
BBX 11 20 0 -5
BITMAP
0000
0000
0000
0600
0600
0600
0600
0600
0600
0600
0600
0000
0600
0F00
0600
0000
0000
0000
0000
0000
ENDCHAR

STARTCHAR quotedbl
ENCODING 34
SWIDTH 568 0
DWIDTH 11 0
BBX 11 20 0 -5
BITMAP
0000
0000
0000
0000
0CC0
0CC0
0CC0
0CC0
0CC0
0000
0000
0000
0000
0000
0000
0000
0000
0000
0000
0000
ENDCHAR

STARTCHAR numbersign
ENCODING 35
SWIDTH 568 0
DWIDTH 11 0
BBX 11 20 0 -5
BITMAP
0000
0000
0000
0000
1B00
1B00
1B00
1B00
1B00
7FC0
1B00
1B00
7FC0
1B00
1B00
1B00
1B00
1B00
0000
0000
ENDCHAR

STARTCHAR dollar
ENCODING 36
SWIDTH 568 0
DWIDTH 11 0
BBX 11 20 0 -5
BITMAP
0000
0000
0200
0200
1EC0
39C0
30C0
3000
3800
1F80
00C0
00C0
30C0
38C0
3780
0400
0400
0400
0000
0000
ENDCHAR

STARTCHAR percent
ENCODING 37
SWIDTH 568 0
DWIDTH 11 0
BBX 11 20 0 -5
BITMAP
0000
0000
0000
7000
D800
8880
D900
7200
0400
0800
11C0
2360
4220
0360
01C0
0000
0000
0000
0000
0000
ENDCHAR

STARTCHAR ampersand
ENCODING 38
SWIDTH 568 0
DWIDTH 11 0
BBX 11 20 0 -5
BITMAP
0000
0000
0000
0D00
1F00
1900
1800
1800
0800
1D80
3500
3700
3300
3300
1D80
0000
0000
0000
0000
0000
ENDCHAR

STARTCHAR quoteright
ENCODING 39
SWIDTH 568 0
DWIDTH 11 0
BBX 11 20 0 -5
BITMAP
0000
0000
0000
0700
0600
0600
0C00
0800
0000
0000
0000
0000
0000
0000
0000
0000
0000
0000
0000
0000
ENDCHAR

STARTCHAR parenleft
ENCODING 40
SWIDTH 568 0
DWIDTH 11 0
BBX 11 20 0 -5
BITMAP
0000
0000
0000
0100
0200
0600
0400
0C00
0C00
0C00
0C00
0C00
0C00
0C00
0C00
0400
0600
0200
0100
0000
ENDCHAR

STARTCHAR parenright
ENCODING 41
SWIDTH 568 0
DWIDTH 11 0
BBX 11 20 0 -5
BITMAP
0000
0000
0000
0800
0400
0600
0200
0300
0300
0300
0300
0300
0300
0300
0300
0200
0600
0400
0800
0000
ENDCHAR

STARTCHAR asterisk
ENCODING 42
SWIDTH 568 0
DWIDTH 11 0
BBX 11 20 0 -5
BITMAP
0000
0000
0000
0000
0000
0600
0600
36C0
1F80
0F00
0F00
1980
1980
0000
0000
0000
0000
0000
0000
0000
ENDCHAR

STARTCHAR plus
ENCODING 43
SWIDTH 568 0
DWIDTH 11 0
BBX 11 20 0 -5
BITMAP
0000
0000
0000
0000
0000
0600
0600
0600
0600
3FC0
3FC0
0600
0600
0600
0600
0000
0000
0000
0000
0000
ENDCHAR

STARTCHAR comma
ENCODING 44
SWIDTH 568 0
DWIDTH 11 0
BBX 11 20 0 -5
BITMAP
0000
0000
0000
0000
0000
0000
0000
0000
0000
0000
0000
0000
0000
0700
0700
0600
0600
0C00
0400
0000
ENDCHAR

STARTCHAR minus
ENCODING 45
SWIDTH 568 0
DWIDTH 11 0
BBX 11 20 0 -5
BITMAP
0000
0000
0000
0000
0000
0000
0000
0000
0000
0000
7FC0
7FC0
0000
0000
0000
0000
0000
0000
0000
0000
ENDCHAR

STARTCHAR period
ENCODING 46
SWIDTH 568 0
DWIDTH 11 0
BBX 11 20 0 -5
BITMAP
0000
0000
0000
0000
0000
0000
0000
0000
0000
0000
0000
0000
0600
0F00
0600
0000
0000
0000
0000
0000
ENDCHAR

STARTCHAR slash
ENCODING 47
SWIDTH 568 0
DWIDTH 11 0
BBX 11 20 0 -5
BITMAP
0000
0000
0000
0000
00C0
0080
0180
0100
0300
0200
0600
0400
0C00
0800
1800
1000
3000
0000
0000
0000
ENDCHAR

STARTCHAR zero
ENCODING 48
SWIDTH 568 0
DWIDTH 11 0
BBX 11 20 0 -5
BITMAP
0000
0000
0000
0600
0F00
0900
1980
1980
1980
1980
1980
1980
0900
0F00
0600
0000
0000
0000
0000
0000
ENDCHAR

STARTCHAR one
ENCODING 49
SWIDTH 568 0
DWIDTH 11 0
BBX 11 20 0 -5
BITMAP
0000
0000
0000
0600
0E00
1E00
1600
0600
0600
0600
0600
0600
0600
0600
1F80
0000
0000
0000
0000
0000
ENDCHAR

STARTCHAR two
ENCODING 50
SWIDTH 568 0
DWIDTH 11 0
BBX 11 20 0 -5
BITMAP
0000
0000
0000
0F00
1980
1180
0180
0100
0300
0600
0C00
0C00
1800
1980
1F80
0000
0000
0000
0000
0000
ENDCHAR

STARTCHAR three
ENCODING 51
SWIDTH 568 0
DWIDTH 11 0
BBX 11 20 0 -5
BITMAP
0000
0000
0000
0F00
1980
0180
0180
0100
0E00
0100
0180
0180
0180
1980
0F00
0000
0000
0000
0000
0000
ENDCHAR

STARTCHAR four
ENCODING 52
SWIDTH 568 0
DWIDTH 11 0
BBX 11 20 0 -5
BITMAP
0000
0000
0000
0180
0380
0780
0580
0D80
0980
1980
1980
1FC0
0180
0180
0180
0000
0000
0000
0000
0000
ENDCHAR

STARTCHAR five
ENCODING 53
SWIDTH 568 0
DWIDTH 11 0
BBX 11 20 0 -5
BITMAP
0000
0000
0000
1F00
1800
1800
1800
1E00
1300
0180
0180
0180
0180
1B00
0E00
0000
0000
0000
0000
0000
ENDCHAR

STARTCHAR six
ENCODING 54
SWIDTH 568 0
DWIDTH 11 0
BBX 11 20 0 -5
BITMAP
0000
0000
0000
0300
0600
0C00
0C00
1800
1F00
1980
1980
1980
1980
0F00
0600
0000
0000
0000
0000
0000
ENDCHAR

STARTCHAR seven
ENCODING 55
SWIDTH 568 0
DWIDTH 11 0
BBX 11 20 0 -5
BITMAP
0000
0000
0000
1F80
1980
0180
0180
0300
0300
0300
0600
0600
0C00
0C00
0C00
0000
0000
0000
0000
0000
ENDCHAR

STARTCHAR eight
ENCODING 56
SWIDTH 568 0
DWIDTH 11 0
BBX 11 20 0 -5
BITMAP
0000
0000
0000
0F00
1980
1980
1980
0900
0F00
1980
1980
1980
1980
1980
0F00
0000
0000
0000
0000
0000
ENDCHAR

STARTCHAR nine
ENCODING 57
SWIDTH 568 0
DWIDTH 11 0
BBX 11 20 0 -5
BITMAP
0000
0000
0000
0600
0F00
1980
1980
1980
1980
0F80
0180
0300
0300
0600
0C00
0000
0000
0000
0000
0000
ENDCHAR

STARTCHAR colon
ENCODING 58
SWIDTH 568 0
DWIDTH 11 0
BBX 11 20 0 -5
BITMAP
0000
0000
0000
0000
0000
0000
0600
0F00
0600
0000
0000
0000
0600
0F00
0600
0000
0000
0000
0000
0000
ENDCHAR

STARTCHAR semicolon
ENCODING 59
SWIDTH 568 0
DWIDTH 11 0
BBX 11 20 0 -5
BITMAP
0000
0000
0000
0000
0000
0000
0000
0600
0F00
0600
0000
0000
0000
0E00
0E00
0C00
0C00
1800
0800
0000
ENDCHAR

STARTCHAR less
ENCODING 60
SWIDTH 568 0
DWIDTH 11 0
BBX 11 20 0 -5
BITMAP
0000
0000
0000
0000
0000
00C0
03C0
0F00
3C00
7000
3C00
0F00
03C0
00C0
0000
0000
0000
0000
0000
0000
ENDCHAR

STARTCHAR equal
ENCODING 61
SWIDTH 568 0
DWIDTH 11 0
BBX 11 20 0 -5
BITMAP
0000
0000
0000
0000
0000
0000
0000
0000
3FC0
3FC0
0000
0000
3FC0
3FC0
0000
0000
0000
0000
0000
0000
ENDCHAR

STARTCHAR greater
ENCODING 62
SWIDTH 568 0
DWIDTH 11 0
BBX 11 20 0 -5
BITMAP
0000
0000
0000
0000
0000
6000
7800
1E00
0780
01C0
0780
1E00
7800
6000
0000
0000
0000
0000
0000
0000
ENDCHAR

STARTCHAR question
ENCODING 63
SWIDTH 568 0
DWIDTH 11 0
BBX 11 20 0 -5
BITMAP
0000
0000
0000
1F80
31C0
00C0
00C0
00C0
0380
0E00
0C00
0000
0C00
1E00
0C00
0000
0000
0000
0000
0000
ENDCHAR

STARTCHAR at
ENCODING 64
SWIDTH 568 0
DWIDTH 11 0
BBX 11 20 0 -5
BITMAP
0000
0000
0000
0000
0E00
3180
2080
60C0
63C0
64C0
6CC0
6CC0
6CC0
67E0
6000
3000
3840
0F80
0000
0000
ENDCHAR

STARTCHAR A
ENCODING 65
SWIDTH 568 0
DWIDTH 11 0
BBX 11 20 0 -5
BITMAP
0000
0000
0000
0400
0E00
0A00
1B00
1B00
3180
3180
3180
3F80
60C0
60C0
60C0
0000
0000
0000
0000
0000
ENDCHAR

STARTCHAR B
ENCODING 66
SWIDTH 568 0
DWIDTH 11 0
BBX 11 20 0 -5
BITMAP
0000
0000
0000
3F00
3180
3180
3180
3180
3F00
3180
30C0
30C0
30C0
30C0
3F80
0000
0000
0000
0000
0000
ENDCHAR

STARTCHAR C
ENCODING 67
SWIDTH 568 0
DWIDTH 11 0
BBX 11 20 0 -5
BITMAP
0000
0000
0000
0F80
18C0
3000
3000
3000
3000
3000
3000
3000
3040
18C0
0F80
0000
0000
0000
0000
0000
ENDCHAR

STARTCHAR D
ENCODING 68
SWIDTH 568 0
DWIDTH 11 0
BBX 11 20 0 -5
BITMAP
0000
0000
0000
3F00
3180
30C0
30C0
30C0
30C0
30C0
30C0
30C0
30C0
3180
3F00
0000
0000
0000
0000
0000
ENDCHAR

STARTCHAR E
ENCODING 69
SWIDTH 568 0
DWIDTH 11 0
BBX 11 20 0 -5
BITMAP
0000
0000
0000
1FC0
1800
1800
1800
1800
1F80
1800
1800
1800
1800
1800
1FC0
0000
0000
0000
0000
0000
ENDCHAR

STARTCHAR F
ENCODING 70
SWIDTH 568 0
DWIDTH 11 0
BBX 11 20 0 -5
BITMAP
0000
0000
0000
1FC0
1800
1800
1800
1800
1F80
1800
1800
1800
1800
1800
1800
0000
0000
0000
0000
0000
ENDCHAR

STARTCHAR G
ENCODING 71
SWIDTH 568 0
DWIDTH 11 0
BBX 11 20 0 -5
BITMAP
0000
0000
0000
07C0
0C60
1800
1800
1800
1800
18E0
1860
1860
1860
0C60
07E0
0000
0000
0000
0000
0000
ENDCHAR

STARTCHAR H
ENCODING 72
SWIDTH 568 0
DWIDTH 11 0
BBX 11 20 0 -5
BITMAP
0000
0000
0000
30C0
30C0
30C0
30C0
30C0
3FC0
30C0
30C0
30C0
30C0
30C0
30C0
0000
0000
0000
0000
0000
ENDCHAR

STARTCHAR I
ENCODING 73
SWIDTH 568 0
DWIDTH 11 0
BBX 11 20 0 -5
BITMAP
0000
0000
0000
1F80
0600
0600
0600
0600
0600
0600
0600
0600
0600
0600
1F80
0000
0000
0000
0000
0000
ENDCHAR

STARTCHAR J
ENCODING 74
SWIDTH 568 0
DWIDTH 11 0
BBX 11 20 0 -5
BITMAP
0000
0000
0000
0180
0180
0180
0180
0180
0180
0180
0180
0180
0180
3180
1F00
0000
0000
0000
0000
0000
ENDCHAR

STARTCHAR K
ENCODING 75
SWIDTH 568 0
DWIDTH 11 0
BBX 11 20 0 -5
BITMAP
0000
0000
0000
30C0
30C0
3180
3300
3600
3C00
3E00
3300
3300
3180
30C0
30C0
0000
0000
0000
0000
0000
ENDCHAR

STARTCHAR L
ENCODING 76
SWIDTH 568 0
DWIDTH 11 0
BBX 11 20 0 -5
BITMAP
0000
0000
0000
1800
1800
1800
1800
1800
1800
1800
1800
1800
1800
1800
1FC0
0000
0000
0000
0000
0000
ENDCHAR

STARTCHAR M
ENCODING 77
SWIDTH 568 0
DWIDTH 11 0
BBX 11 20 0 -5
BITMAP
0000
0000
0000
30C0
30C0
39C0
39C0
3FC0
36C0
36C0
36C0
36C0
30C0
30C0
30C0
0000
0000
0000
0000
0000
ENDCHAR

STARTCHAR N
ENCODING 78
SWIDTH 568 0
DWIDTH 11 0
BBX 11 20 0 -5
BITMAP
0000
0000
0000
30C0
38C0
38C0
34C0
34C0
34C0
32C0
32C0
32C0
31C0
31C0
30C0
0000
0000
0000
0000
0000
ENDCHAR

STARTCHAR O
ENCODING 79
SWIDTH 568 0
DWIDTH 11 0
BBX 11 20 0 -5
BITMAP
0000
0000
0000
0F00
1980
30C0
30C0
30C0
30C0
30C0
30C0
30C0
30C0
1980
0F00
0000
0000
0000
0000
0000
ENDCHAR

STARTCHAR P
ENCODING 80
SWIDTH 568 0
DWIDTH 11 0
BBX 11 20 0 -5
BITMAP
0000
0000
0000
1F80
18C0
18C0
18C0
18C0
18C0
1F80
1800
1800
1800
1800
1800
0000
0000
0000
0000
0000
ENDCHAR

STARTCHAR Q
ENCODING 81
SWIDTH 568 0
DWIDTH 11 0
BBX 11 20 0 -5
BITMAP
0000
0000
0000
0F00
1980
30C0
30C0
30C0
30C0
30C0
30C0
30C0
30C0
1B80
0F00
0300
0180
00C0
0000
0000
ENDCHAR

STARTCHAR R
ENCODING 82
SWIDTH 568 0
DWIDTH 11 0
BBX 11 20 0 -5
BITMAP
0000
0000
0000
3F80
30C0
30C0
30C0
30C0
30C0
3F00
3180
3180
30C0
30C0
30C0
0000
0000
0000
0000
0000
ENDCHAR

STARTCHAR S
ENCODING 83
SWIDTH 568 0
DWIDTH 11 0
BBX 11 20 0 -5
BITMAP
0000
0000
0000
0F00
1980
3000
3000
3C00
1F00
0780
01C0
00C0
00C0
3180
1F00
0000
0000
0000
0000
0000
ENDCHAR

STARTCHAR T
ENCODING 84
SWIDTH 568 0
DWIDTH 11 0
BBX 11 20 0 -5
BITMAP
0000
0000
0000
3FC0
0600
0600
0600
0600
0600
0600
0600
0600
0600
0600
0600
0000
0000
0000
0000
0000
ENDCHAR

STARTCHAR U
ENCODING 85
SWIDTH 568 0
DWIDTH 11 0
BBX 11 20 0 -5
BITMAP
0000
0000
0000
30C0
30C0
30C0
30C0
30C0
30C0
30C0
30C0
30C0
30C0
1980
0F00
0000
0000
0000
0000
0000
ENDCHAR

STARTCHAR V
ENCODING 86
SWIDTH 568 0
DWIDTH 11 0
BBX 11 20 0 -5
BITMAP
0000
0000
0000
60C0
60C0
60C0
60C0
3180
3180
3180
1B00
1B00
0A00
0E00
0400
0000
0000
0000
0000
0000
ENDCHAR

STARTCHAR W
ENCODING 87
SWIDTH 568 0
DWIDTH 11 0
BBX 11 20 0 -5
BITMAP
0000
0000
0000
30C0
30C0
30C0
30C0
30C0
36C0
36C0
36C0
3FC0
1980
1980
1980
0000
0000
0000
0000
0000
ENDCHAR

STARTCHAR X
ENCODING 88
SWIDTH 568 0
DWIDTH 11 0
BBX 11 20 0 -5
BITMAP
0000
0000
0000
3180
3180
3180
1B00
1B00
0E00
0E00
0A00
1B00
3180
3180
3180
0000
0000
0000
0000
0000
ENDCHAR

STARTCHAR Y
ENCODING 89
SWIDTH 568 0
DWIDTH 11 0
BBX 11 20 0 -5
BITMAP
0000
0000
0000
30C0
30C0
30C0
1980
1980
0F00
0600
0600
0600
0600
0600
0600
0000
0000
0000
0000
0000
ENDCHAR

STARTCHAR Z
ENCODING 90
SWIDTH 568 0
DWIDTH 11 0
BBX 11 20 0 -5
BITMAP
0000
0000
0000
3FC0
30C0
0180
0180
0300
0600
0600
0C00
1800
1800
3180
3F80
0000
0000
0000
0000
0000
ENDCHAR

STARTCHAR bracketleft
ENCODING 91
SWIDTH 568 0
DWIDTH 11 0
BBX 11 20 0 -5
BITMAP
0000
0000
0000
0F00
0C00
0C00
0C00
0C00
0C00
0C00
0C00
0C00
0C00
0C00
0C00
0C00
0F00
0000
0000
0000
ENDCHAR

STARTCHAR backslash
ENCODING 92
SWIDTH 568 0
DWIDTH 11 0
BBX 11 20 0 -5
BITMAP
0000
0000
0000
0000
3000
1000
1800
0800
0C00
0400
0600
0200
0300
0100
0180
0080
00C0
0000
0000
0000
ENDCHAR

STARTCHAR bracketright
ENCODING 93
SWIDTH 568 0
DWIDTH 11 0
BBX 11 20 0 -5
BITMAP
0000
0000
0000
0F00
0300
0300
0300
0300
0300
0300
0300
0300
0300
0300
0300
0300
0F00
0000
0000
0000
ENDCHAR

STARTCHAR asciicircum
ENCODING 94
SWIDTH 568 0
DWIDTH 11 0
BBX 11 20 0 -5
BITMAP
0000
0000
0000
0000
0000
0000
0200
0700
0D80
18C0
0000
0000
0000
0000
0000
0000
0000
0000
0000
0000
ENDCHAR

STARTCHAR underscore
ENCODING 95
SWIDTH 568 0
DWIDTH 11 0
BBX 11 20 0 -5
BITMAP
0000
0000
0000
0000
0000
0000
0000
0000
0000
0000
0000
0000
0000
7FE0
7FE0
0000
0000
0000
0000
0000
ENDCHAR

STARTCHAR quoteleft
ENCODING 96
SWIDTH 568 0
DWIDTH 11 0
BBX 11 20 0 -5
BITMAP
0000
0000
0000
0E00
0600
0600
0300
0100
0000
0000
0000
0000
0000
0000
0000
0000
0000
0000
0000
0000
ENDCHAR

STARTCHAR a
ENCODING 97
SWIDTH 568 0
DWIDTH 11 0
BBX 11 20 0 -5
BITMAP
0000
0000
0000
0000
0000
0000
1F00
3180
0180
0180
3F80
6180
6180
7380
3DC0
0000
0000
0000
0000
0000
ENDCHAR

STARTCHAR b
ENCODING 98
SWIDTH 568 0
DWIDTH 11 0
BBX 11 20 0 -5
BITMAP
0000
0000
0000
3000
3000
3000
3700
3980
30C0
30C0
30C0
30C0
30C0
3980
3700
0000
0000
0000
0000
0000
ENDCHAR

STARTCHAR c
ENCODING 99
SWIDTH 568 0
DWIDTH 11 0
BBX 11 20 0 -5
BITMAP
0000
0000
0000
0000
0000
0000
0F80
18C0
3000
3000
3000
3000
3040
18C0
0F80
0000
0000
0000
0000
0000
ENDCHAR

STARTCHAR d
ENCODING 100
SWIDTH 568 0
DWIDTH 11 0
BBX 11 20 0 -5
BITMAP
0000
0000
0000
0180
0180
0180
1D80
3380
6180
6180
6180
6180
6180
3380
1D80
0000
0000
0000
0000
0000
ENDCHAR

STARTCHAR e
ENCODING 101
SWIDTH 568 0
DWIDTH 11 0
BBX 11 20 0 -5
BITMAP
0000
0000
0000
0000
0000
0000
1F00
3180
60C0
60C0
7FC0
6000
6000
30C0
1F80
0000
0000
0000
0000
0000
ENDCHAR

STARTCHAR f
ENCODING 102
SWIDTH 568 0
DWIDTH 11 0
BBX 11 20 0 -5
BITMAP
0000
0000
0000
07C0
0C00
0C00
3FC0
0C00
0C00
0C00
0C00
0C00
0C00
0C00
0C00
0000
0000
0000
0000
0000
ENDCHAR

STARTCHAR g
ENCODING 103
SWIDTH 568 0
DWIDTH 11 0
BBX 11 20 0 -5
BITMAP
0000
0000
0000
0000
0000
0000
1F80
3180
6180
6180
6180
6180
6180
3380
1D80
0180
0300
3E00
0000
0000
ENDCHAR

STARTCHAR h
ENCODING 104
SWIDTH 568 0
DWIDTH 11 0
BBX 11 20 0 -5
BITMAP
0000
0000
0000
3000
3000
3000
3700
3B80
3180
3180
3180
3180
3180
3180
3180
0000
0000
0000
0000
0000
ENDCHAR

STARTCHAR i
ENCODING 105
SWIDTH 570 0
DWIDTH 11 0
BBX 11 20 0 -5
BITMAP
0000
0000
0600
0600
0000
0000
1E00
0600
0600
0600
0600
0600
0600
0600
3FC0
0000
0000
0000
0000
0000
ENDCHAR

STARTCHAR j
ENCODING 106
SWIDTH 568 0
DWIDTH 11 0
BBX 11 20 0 -5
BITMAP
0000
0000
0300
0300
0000
0000
0300
0300
0300
0300
0300
0300
0300
0300
0300
0300
0300
3E00
0000
0000
ENDCHAR

STARTCHAR k
ENCODING 107
SWIDTH 568 0
DWIDTH 11 0
BBX 11 20 0 -5
BITMAP
0000
0000
0000
3000
3000
3000
3180
3300
3600
3C00
3C00
3600
3300
3180
30C0
0000
0000
0000
0000
0000
ENDCHAR

STARTCHAR l
ENCODING 108
SWIDTH 568 0
DWIDTH 11 0
BBX 11 20 0 -5
BITMAP
0000
0000
0000
1E00
0600
0600
0600
0600
0600
0600
0600
0600
0600
0600
3FC0
0000
0000
0000
0000
0000
ENDCHAR

STARTCHAR m
ENCODING 109
SWIDTH 568 0
DWIDTH 11 0
BBX 11 20 0 -5
BITMAP
0000
0000
0000
0000
0000
0000
6D80
76C0
64C0
64C0
64C0
64C0
64C0
64C0
64C0
0000
0000
0000
0000
0000
ENDCHAR

STARTCHAR n
ENCODING 110
SWIDTH 568 0
DWIDTH 11 0
BBX 11 20 0 -5
BITMAP
0000
0000
0000
0000
0000
0000
3700
3980
3180
3180
3180
3180
3180
3180
3180
0000
0000
0000
0000
0000
ENDCHAR

STARTCHAR o
ENCODING 111
SWIDTH 568 0
DWIDTH 11 0
BBX 11 20 0 -5
BITMAP
0000
0000
0000
0000
0000
0000
1F00
3180
60C0
60C0
60C0
60C0
60C0
3180
1F00
0000
0000
0000
0000
0000
ENDCHAR

STARTCHAR p
ENCODING 112
SWIDTH 568 0
DWIDTH 11 0
BBX 11 20 0 -5
BITMAP
0000
0000
0000
0000
0000
0000
3700
3980
30C0
30C0
30C0
30C0
30C0
3980
3700
3000
3000
3000
0000
0000
ENDCHAR

STARTCHAR q
ENCODING 113
SWIDTH 568 0
DWIDTH 11 0
BBX 11 20 0 -5
BITMAP
0000
0000
0000
0000
0000
0000
1F80
3180
6180
6180
6180
6180
6180
3380
1D80
0180
0180
0180
0000
0000
ENDCHAR

STARTCHAR r
ENCODING 114
SWIDTH 568 0
DWIDTH 11 0
BBX 11 20 0 -5
BITMAP
0000
0000
0000
0000
0000
0000
19C0
1EC0
1C00
1800
1800
1800
1800
1800
1800
0000
0000
0000
0000
0000
ENDCHAR

STARTCHAR s
ENCODING 115
SWIDTH 568 0
DWIDTH 11 0
BBX 11 20 0 -5
BITMAP
0000
0000
0000
0000
0000
0000
1F80
30C0
3000
3C00
1F80
03C0
00C0
30C0
1F80
0000
0000
0000
0000
0000
ENDCHAR

STARTCHAR t
ENCODING 116
SWIDTH 568 0
DWIDTH 11 0
BBX 11 20 0 -5
BITMAP
0000
0000
0000
1800
1800
1800
7F80
1800
1800
1800
1800
1800
1800
18C0
0F00
0000
0000
0000
0000
0000
ENDCHAR

STARTCHAR u
ENCODING 117
SWIDTH 568 0
DWIDTH 11 0
BBX 11 20 0 -5
BITMAP
0000
0000
0000
0000
0000
0000
3180
3180
3180
3180
3180
3180
3180
3380
1D80
0000
0000
0000
0000
0000
ENDCHAR

STARTCHAR v
ENCODING 118
SWIDTH 568 0
DWIDTH 11 0
BBX 11 20 0 -5
BITMAP
0000
0000
0000
0000
0000
0000
30C0
30C0
30C0
1980
1980
0900
0F00
0600
0600
0000
0000
0000
0000
0000
ENDCHAR

STARTCHAR w
ENCODING 119
SWIDTH 568 0
DWIDTH 11 0
BBX 11 20 0 -5
BITMAP
0000
0000
0000
0000
0000
0000
60C0
64C0
64C0
64C0
6EC0
6AC0
3B80
3180
3180
0000
0000
0000
0000
0000
ENDCHAR

STARTCHAR x
ENCODING 120
SWIDTH 568 0
DWIDTH 11 0
BBX 11 20 0 -5
BITMAP
0000
0000
0000
0000
0000
0000
3180
3180
1B00
1F00
0E00
0A00
1B00
3180
3180
0000
0000
0000
0000
0000
ENDCHAR

STARTCHAR y
ENCODING 121
SWIDTH 568 0
DWIDTH 11 0
BBX 11 20 0 -5
BITMAP
0000
0000
0000
0000
0000
0000
30C0
30C0
30C0
1980
1980
0900
0F00
0600
0600
0400
0C00
0C00
0000
0000
ENDCHAR

STARTCHAR z
ENCODING 122
SWIDTH 568 0
DWIDTH 11 0
BBX 11 20 0 -5
BITMAP
0000
0000
0000
0000
0000
0000
3F80
0180
0300
0600
0400
0C00
1800
3000
3F80
0000
0000
0000
0000
0000
ENDCHAR

STARTCHAR braceleft
ENCODING 123
SWIDTH 568 0
DWIDTH 11 0
BBX 11 20 0 -5
BITMAP
0000
0000
0000
0380
0600
0600
0600
0600
0600
0C00
1800
0C00
0600
0600
0600
0600
0600
0380
0000
0000
ENDCHAR

STARTCHAR bar
ENCODING 124
SWIDTH 568 0
DWIDTH 11 0
BBX 11 20 0 -5
BITMAP
0000
0600
0600
0600
0600
0600
0600
0600
0600
0600
0600
0600
0600
0600
0600
0600
0600
0600
0000
0000
ENDCHAR

STARTCHAR braceright
ENCODING 125
SWIDTH 568 0
DWIDTH 11 0
BBX 11 20 0 -5
BITMAP
0000
0000
0000
1C00
0600
0600
0600
0600
0600
0300
0180
0300
0600
0600
0600
0600
0600
1C00
0000
0000
ENDCHAR

STARTCHAR asciitilde
ENCODING 126
SWIDTH 568 0
DWIDTH 11 0
BBX 11 20 0 -5
BITMAP
0000
0000
0000
0000
0000
0000
0000
0000
1880
2E80
2300
0000
0000
0000
0000
0000
0000
0000
0000
0000
ENDCHAR

STARTCHAR space
ENCODING 160
SWIDTH 568 0
DWIDTH 11 0
BBX 11 20 0 -5
BITMAP
0000
0000
0000
0000
0000
0000
0000
0000
0000
0000
0000
0000
0000
0000
0000
0000
0000
0000
0000
0000
ENDCHAR

STARTCHAR quoteleft
ENCODING 161
SWIDTH 568 0
DWIDTH 11 0
BBX 11 20 0 -5
BITMAP
0000
0000
0000
0E00
0600
0600
0300
0100
0000
0000
0000
0000
0000
0000
0000
0000
0000
0000
0000
0000
ENDCHAR

STARTCHAR quoteright
ENCODING 162
SWIDTH 568 0
DWIDTH 11 0
BBX 11 20 0 -5
BITMAP
0000
0000
0000
0700
0600
0600
0C00
0800
0000
0000
0000
0000
0000
0000
0000
0000
0000
0000
0000
0000
ENDCHAR

STARTCHAR sterling
ENCODING 163
SWIDTH 568 0
DWIDTH 11 0
BBX 11 20 0 -5
BITMAP
0000
0000
0000
0780
0CC0
1800
1800
1800
0C00
3F80
0C00
0C00
1800
3C40
27C0
0000
0000
0000
0000
0000
ENDCHAR

STARTCHAR brokenbar
ENCODING 166
SWIDTH 568 0
DWIDTH 11 0
BBX 11 20 0 -5
BITMAP
0000
0000
0C00
0C00
0C00
0C00
0C00
0C00
0C00
0000
0000
0000
0C00
0C00
0C00
0C00
0C00
0C00
0C00
0000
ENDCHAR

STARTCHAR section
ENCODING 167
SWIDTH 568 0
DWIDTH 11 0
BBX 11 20 0 -5
BITMAP
0000
0000
0000
0000
1F00
3180
3180
3000
3C00
2600
2300
3180
1880
0C80
0780
0180
3180
3F00
0000
0000
ENDCHAR

STARTCHAR dieresis
ENCODING 168
SWIDTH 568 0
DWIDTH 11 0
BBX 11 20 0 -5
BITMAP
0000
0000
0000
3180
3180
0000
0000
0000
0000
0000
0000
0000
0000
0000
0000
0000
0000
0000
0000
0000
ENDCHAR

STARTCHAR copyright
ENCODING 169
SWIDTH 568 0
DWIDTH 11 0
BBX 11 20 0 -5
BITMAP
0000
0000
0000
0000
1F00
60C0
4E40
D160
D060
D060
D060
D160
4E40
60C0
1F00
0000
0000
0000
0000
0000
ENDCHAR

STARTCHAR guillemotleft
ENCODING 171
SWIDTH 568 0
DWIDTH 11 0
BBX 11 20 0 -5
BITMAP
0000
0000
0000
0000
0000
0000
0000
0000
0880
1980
3300
3300
3300
1980
0880
0000
0000
0000
0000
0000
ENDCHAR

STARTCHAR logicalnot
ENCODING 172
SWIDTH 568 0
DWIDTH 11 0
BBX 11 20 0 -5
BITMAP
0000
0000
0000
0000
0000
0000
0000
0000
0000
0000
3FC0
3FC0
00C0
00C0
00C0
0000
0000
0000
0000
0000
ENDCHAR

STARTCHAR hyphen
ENCODING 173
SWIDTH 568 0
DWIDTH 11 0
BBX 11 20 0 -5
BITMAP
0000
0000
0000
0000
0000
0000
0000
0000
0000
0000
0000
7FC0
0000
0000
0000
0000
0000
0000
0000
0000
ENDCHAR

STARTCHAR endash
ENCODING 175
SWIDTH 568 0
DWIDTH 11 0
BBX 11 20 0 -5
BITMAP
0000
0000
0000
0000
0000
0000
0000
0000
0000
0000
0000
FFE0
0000
0000
0000
0000
0000
0000
0000
0000
ENDCHAR

STARTCHAR degree
ENCODING 176
SWIDTH 568 0
DWIDTH 11 0
BBX 11 20 0 -5
BITMAP
0000
0000
0000
0000
0F00
1980
1080
1080
1980
0F00
0000
0000
0000
0000
0000
0000
0000
0000
0000
0000
ENDCHAR

STARTCHAR plusminus
ENCODING 177
SWIDTH 568 0
DWIDTH 11 0
BBX 11 20 0 -5
BITMAP
0000
0000
0000
0000
0600
0600
0600
3FC0
3FC0
0600
0600
0600
0000
3FC0
3FC0
0000
0000
0000
0000
0000
ENDCHAR

STARTCHAR twosuperior
ENCODING 178
SWIDTH 568 0
DWIDTH 11 0
BBX 11 20 0 -5
BITMAP
0000
0000
0000
0000
0E00
1300
0300
0600
0C00
1900
1F00
0000
0000
0000
0000
0000
0000
0000
0000
0000
ENDCHAR

STARTCHAR threesuperior
ENCODING 179
SWIDTH 568 0
DWIDTH 11 0
BBX 11 20 0 -5
BITMAP
0000
0000
0000
0000
0E00
1300
0300
0600
0300
1300
0E00
0000
0000
0000
0000
0000
0000
0000
0000
0000
ENDCHAR

STARTCHAR acute
ENCODING 180
SWIDTH 568 0
DWIDTH 11 0
BBX 11 20 0 -5
BITMAP
0000
0000
0000
0700
0C00
1000
0000
0000
0000
0000
0000
0000
0000
0000
0000
0000
0000
0000
0000
0000
ENDCHAR

STARTCHAR dieresisacute
ENCODING 181
SWIDTH 568 0
DWIDTH 11 0
BBX 11 20 0 -5
BITMAP
0000
0000
0000
0000
0300
36C0
34C0
0000
0000
0000
0000
0000
0000
0000
0000
0000
0000
0000
0000
0000
ENDCHAR

STARTCHAR afii9936
ENCODING 182
SWIDTH 568 0
DWIDTH 11 0
BBX 11 20 0 -5
BITMAP
0000
0000
0000
6200
C700
8500
0D80
0D80
18C0
18C0
18C0
1FC0
3060
3060
3060
0000
0000
0000
0000
0000
ENDCHAR

STARTCHAR periodcentered
ENCODING 183
SWIDTH 568 0
DWIDTH 11 0
BBX 11 20 0 -5
BITMAP
0000
0000
0000
0000
0000
0000
0000
0000
0000
0600
0F00
0F00
0600
0000
0000
0000
0000
0000
0000
0000
ENDCHAR

STARTCHAR afii9937
ENCODING 184
SWIDTH 568 0
DWIDTH 11 0
BBX 11 20 0 -5
BITMAP
0000
0000
0000
6FE0
CC00
8C00
0C00
0C00
0FC0
0C00
0C00
0C00
0C00
0C00
0FE0
0000
0000
0000
0000
0000
ENDCHAR

STARTCHAR afii9938
ENCODING 185
SWIDTH 568 0
DWIDTH 11 0
BBX 11 20 0 -5
BITMAP
0000
0000
0000
7860
D860
9860
1860
1860
1FE0
1860
1860
1860
1860
1860
1860
0000
0000
0000
0000
0000
ENDCHAR

STARTCHAR afii9939
ENCODING 186
SWIDTH 568 0
DWIDTH 11 0
BBX 11 20 0 -5
BITMAP
0000
0000
0000
6FC0
C300
8300
0300
0300
0300
0300
0300
0300
0300
0300
0FC0
0000
0000
0000
0000
0000
ENDCHAR

STARTCHAR guillemotright
ENCODING 187
SWIDTH 568 0
DWIDTH 11 0
BBX 11 20 0 -5
BITMAP
0000
0000
0000
0000
0000
0000
0000
0000
2200
3300
1980
1980
1980
3300
2200
0000
0000
0000
0000
0000
ENDCHAR

STARTCHAR afii9940
ENCODING 188
SWIDTH 568 0
DWIDTH 11 0
BBX 11 20 0 -5
BITMAP
0000
0000
0000
6780
CCC0
9860
1860
1860
1860
1860
1860
1860
1860
0CC0
0780
0000
0000
0000
0000
0000
ENDCHAR

STARTCHAR onehalf
ENCODING 189
SWIDTH 568 0
DWIDTH 11 0
BBX 11 20 0 -5
BITMAP
3000
7000
3000
3000
3000
3060
79C0
0700
1DC0
7260
4060
00C0
0180
0320
03E0
0000
0000
0000
0000
0000
ENDCHAR

STARTCHAR afii9941
ENCODING 190
SWIDTH 568 0
DWIDTH 11 0
BBX 11 20 0 -5
BITMAP
0000
0000
0000
7860
D860
9860
0CC0
0CC0
0780
0300
0300
0300
0300
0300
0300
0000
0000
0000
0000
0000
ENDCHAR

STARTCHAR afii9942
ENCODING 191
SWIDTH 568 0
DWIDTH 11 0
BBX 11 20 0 -5
BITMAP
0000
0000
0000
6780
CCC0
9860
1860
1860
1860
1860
1860
1860
1CE0
0CC0
1CE0
0000
0000
0000
0000
0000
ENDCHAR

STARTCHAR afii9977
ENCODING 192
SWIDTH 568 0
DWIDTH 11 0
BBX 11 20 0 -5
BITMAP
0000
0000
0300
36C0
34C0
0000
1E00
0600
0600
0600
0600
0600
0600
0600
3FC0
0000
0000
0000
0000
0000
ENDCHAR

STARTCHAR afii9793
ENCODING 193
SWIDTH 568 0
DWIDTH 11 0
BBX 11 20 0 -5
BITMAP
0000
0000
0000
0400
0E00
0A00
1B00
1B00
3180
3180
3180
3F80
60C0
60C0
60C0
0000
0000
0000
0000
0000
ENDCHAR

STARTCHAR afii9794
ENCODING 194
SWIDTH 568 0
DWIDTH 11 0
BBX 11 20 0 -5
BITMAP
0000
0000
0000
3F00
3180
3180
3180
3180
3F00
3180
30C0
30C0
30C0
30C0
3F80
0000
0000
0000
0000
0000
ENDCHAR

STARTCHAR afii9796
ENCODING 195
SWIDTH 568 0
DWIDTH 11 0
BBX 11 20 0 -5
BITMAP
0000
0000
0000
1FC0
1800
1800
1800
1800
1800
1800
1800
1800
1800
1800
1800
0000
0000
0000
0000
0000
ENDCHAR

STARTCHAR afii9797
ENCODING 196
SWIDTH 568 0
DWIDTH 11 0
BBX 11 20 0 -5
BITMAP
0000
0000
0000
0600
0E00
1B00
1B00
1B00
3180
3180
3180
60C0
60C0
60C0
FFE0
0000
0000
0000
0000
0000
ENDCHAR

STARTCHAR afii9798
ENCODING 197
SWIDTH 568 0
DWIDTH 11 0
BBX 11 20 0 -5
BITMAP
0000
0000
0000
1FC0
1800
1800
1800
1800
1F80
1800
1800
1800
1800
1800
1FC0
0000
0000
0000
0000
0000
ENDCHAR

STARTCHAR afii9801
ENCODING 198
SWIDTH 568 0
DWIDTH 11 0
BBX 11 20 0 -5
BITMAP
0000
0000
0000
3FC0
30C0
0180
0180
0300
0600
0600
0C00
1800
1800
3180
3F80
0000
0000
0000
0000
0000
ENDCHAR

STARTCHAR afii9802
ENCODING 199
SWIDTH 568 0
DWIDTH 11 0
BBX 11 20 0 -5
BITMAP
0000
0000
0000
30C0
30C0
30C0
30C0
30C0
3FC0
30C0
30C0
30C0
30C0
30C0
30C0
0000
0000
0000
0000
0000
ENDCHAR

STARTCHAR afii9803
ENCODING 200
SWIDTH 568 0
DWIDTH 11 0
BBX 11 20 0 -5
BITMAP
0000
0000
0000
0F00
1980
30C0
30C0
30C0
36C0
30C0
30C0
30C0
30C0
1980
0F00
0000
0000
0000
0000
0000
ENDCHAR

STARTCHAR afii9804
ENCODING 201
SWIDTH 568 0
DWIDTH 11 0
BBX 11 20 0 -5
BITMAP
0000
0000
0000
1F80
0600
0600
0600
0600
0600
0600
0600
0600
0600
0600
1F80
0000
0000
0000
0000
0000
ENDCHAR

STARTCHAR afii9805
ENCODING 202
SWIDTH 568 0
DWIDTH 11 0
BBX 11 20 0 -5
BITMAP
0000
0000
0000
30C0
30C0
3180
3300
3600
3C00
3E00
3300
3300
3180
30C0
30C0
0000
0000
0000
0000
0000
ENDCHAR

STARTCHAR afii9806
ENCODING 203
SWIDTH 568 0
DWIDTH 11 0
BBX 11 20 0 -5
BITMAP
0000
0000
0000
0400
0E00
0A00
1B00
1B00
3180
3180
3180
60C0
60C0
60C0
60C0
0000
0000
0000
0000
0000
ENDCHAR

STARTCHAR afii9807
ENCODING 204
SWIDTH 568 0
DWIDTH 11 0
BBX 11 20 0 -5
BITMAP
0000
0000
0000
30C0
30C0
39C0
39C0
3FC0
36C0
36C0
36C0
36C0
30C0
30C0
30C0
0000
0000
0000
0000
0000
ENDCHAR

STARTCHAR afii9808
ENCODING 205
SWIDTH 568 0
DWIDTH 11 0
BBX 11 20 0 -5
BITMAP
0000
0000
0000
30C0
38C0
38C0
34C0
34C0
34C0
32C0
32C0
32C0
31C0
31C0
30C0
0000
0000
0000
0000
0000
ENDCHAR

STARTCHAR afii9809
ENCODING 206
SWIDTH 568 0
DWIDTH 11 0
BBX 11 20 0 -5
BITMAP
0000
0000
0000
7FE0
7FE0
0000
0000
0000
3FC0
3FC0
0000
0000
0000
7FE0
7FE0
0000
0000
0000
0000
0000
ENDCHAR

STARTCHAR afii9810
ENCODING 207
SWIDTH 568 0
DWIDTH 11 0
BBX 11 20 0 -5
BITMAP
0000
0000
0000
0F00
1980
30C0
30C0
30C0
30C0
30C0
30C0
30C0
30C0
1980
0F00
0000
0000
0000
0000
0000
ENDCHAR

STARTCHAR afii9811
ENCODING 208
SWIDTH 568 0
DWIDTH 11 0
BBX 11 20 0 -5
BITMAP
0000
0000
0000
3FC0
30C0
30C0
30C0
30C0
30C0
30C0
30C0
30C0
30C0
30C0
30C0
0000
0000
0000
0000
0000
ENDCHAR

STARTCHAR afii9813
ENCODING 209
SWIDTH 568 0
DWIDTH 11 0
BBX 11 20 0 -5
BITMAP
0000
0000
0000
1F80
18C0
18C0
18C0
18C0
18C0
1F80
1800
1800
1800
1800
1800
0000
0000
0000
0000
0000
ENDCHAR

STARTCHAR afii9814
ENCODING 211
SWIDTH 568 0
DWIDTH 11 0
BBX 11 20 0 -5
BITMAP
0000
0000
0000
7FC0
3000
3000
1800
1800
0C00
0600
0C00
1800
1800
3000
7FC0
0000
0000
0000
0000
0000
ENDCHAR

STARTCHAR afii9816
ENCODING 212
SWIDTH 568 0
DWIDTH 11 0
BBX 11 20 0 -5
BITMAP
0000
0000
0000
3FC0
0600
0600
0600
0600
0600
0600
0600
0600
0600
0600
0600
0000
0000
0000
0000
0000
ENDCHAR

STARTCHAR afii9817
ENCODING 213
SWIDTH 568 0
DWIDTH 11 0
BBX 11 20 0 -5
BITMAP
0000
0000
0000
30C0
30C0
30C0
1980
1980
0F00
0600
0600
0600
0600
0600
0600
0000
0000
0000
0000
0000
ENDCHAR

STARTCHAR afii9818
ENCODING 214
SWIDTH 568 0
DWIDTH 11 0
BBX 11 20 0 -5
BITMAP
0000
0000
0000
0600
0600
1F80
36C0
6660
6660
6660
6660
36C0
1F80
0600
0600
0000
0000
0000
0000
0000
ENDCHAR

STARTCHAR afii9819
ENCODING 215
SWIDTH 568 0
DWIDTH 11 0
BBX 11 20 0 -5
BITMAP
0000
0000
0000
3180
3180
3180
1B00
1B00
0E00
0E00
0A00
1B00
3180
3180
3180
0000
0000
0000
0000
0000
ENDCHAR

STARTCHAR afii9820
ENCODING 216
SWIDTH 563 0
DWIDTH 11 0
BBX 11 20 0 -5
BITMAP
0000
0000
0000
6660
6660
6660
6660
6660
6660
36C0
1F80
0600
0600
0600
0600
0000
0000
0000
0000
0000
ENDCHAR

STARTCHAR afii9821
ENCODING 217
SWIDTH 568 0
DWIDTH 11 0
BBX 11 20 0 -5
BITMAP
0000
0000
0000
0F00
1980
30C0
30C0
30C0
30C0
30C0
30C0
30C0
39C0
1980
39C0
0000
0000
0000
0000
0000
ENDCHAR

STARTCHAR afii9943
ENCODING 218
SWIDTH 568 0
DWIDTH 11 0
BBX 11 20 0 -5
BITMAP
18C0
18C0
0000
1F80
0600
0600
0600
0600
0600
0600
0600
0600
0600
0600
1F80
0000
0000
0000
0000
0000
ENDCHAR

STARTCHAR afii9944
ENCODING 219
SWIDTH 568 0
DWIDTH 11 0
BBX 11 20 0 -5
BITMAP
18C0
18C0
0000
30C0
30C0
30C0
1980
1980
0F00
0600
0600
0600
0600
0600
0600
0000
0000
0000
0000
0000
ENDCHAR

STARTCHAR afii9968
ENCODING 220
SWIDTH 568 0
DWIDTH 11 0
BBX 11 20 0 -5
BITMAP
0000
0000
0380
0600
0800
0000
3EE0
63C0
C180
C180
C180
C180
C180
63C0
3EE0
0000
0000
0000
0000
0000
ENDCHAR

STARTCHAR afii9969
ENCODING 221
SWIDTH 568 0
DWIDTH 11 0
BBX 11 20 0 -5
BITMAP
0000
0000
0380
0600
0800
0000
1F00
3180
3180
1800
0C00
1800
3000
3180
1F00
0000
0000
0000
0000
0000
ENDCHAR

STARTCHAR afii9970
ENCODING 222
SWIDTH 568 0
DWIDTH 11 0
BBX 11 20 0 -5
BITMAP
0000
0000
0380
0600
0800
0000
3700
3980
3180
3180
3180
3180
3180
3180
3180
0180
0180
0180
0180
0000
ENDCHAR

STARTCHAR afii9971
ENCODING 223
SWIDTH 568 0
DWIDTH 11 0
BBX 11 20 0 -5
BITMAP
0000
0000
0380
0600
0800
0000
1E00
0600
0600
0600
0600
0600
0600
0600
3FC0
0000
0000
0000
0000
0000
ENDCHAR

STARTCHAR afii9978
ENCODING 224
SWIDTH 568 0
DWIDTH 11 0
BBX 11 20 0 -5
BITMAP
0000
0300
0600
3580
3580
0000
3180
3180
3180
3180
3180
3180
3180
3180
1F00
0000
0000
0000
0000
0000
ENDCHAR

STARTCHAR afii9825
ENCODING 225
SWIDTH 568 0
DWIDTH 11 0
BBX 11 20 0 -5
BITMAP
0000
0000
0000
0000
0000
0000
3EE0
63C0
C180
C180
C180
C180
C180
63C0
3EE0
0000
0000
0000
0000
0000
ENDCHAR

STARTCHAR afii9826
ENCODING 226
SWIDTH 568 0
DWIDTH 11 0
BBX 11 20 0 -5
BITMAP
0000
0000
0000
1F00
3180
3180
3180
3300
3700
3180
30C0
30C0
30C0
3980
3700
3000
3000
3000
3000
0000
ENDCHAR

STARTCHAR afii9828
ENCODING 227
SWIDTH 568 0
DWIDTH 11 0
BBX 11 20 0 -5
BITMAP
0000
0000
0000
0000
0000
0000
60C0
60C0
6180
3180
3300
3300
1E00
1E00
0C00
0C00
0C00
0C00
0C00
0000
ENDCHAR

STARTCHAR afii9829
ENCODING 228
SWIDTH 568 0
DWIDTH 11 0
BBX 11 20 0 -5
BITMAP
0000
0000
0000
3F80
3800
1C00
0600
1F00
3180
60C0
60C0
60C0
60C0
3180
1F00
0000
0000
0000
0000
0000
ENDCHAR

STARTCHAR afii9830
ENCODING 229
SWIDTH 568 0
DWIDTH 11 0
BBX 11 20 0 -5
BITMAP
0000
0000
0000
0000
0000
0000
1F00
3180
3180
1800
0C00
1800
3000
3180
1F00
0000
0000
0000
0000
0000
ENDCHAR

STARTCHAR afii9833
ENCODING 230
SWIDTH 568 0
DWIDTH 11 0
BBX 11 20 0 -5
BITMAP
0000
0000
0000
0F80
0180
0300
0600
0600
0C00
1800
1800
1800
1800
1800
0E00
0700
0180
0180
0700
0000
ENDCHAR

STARTCHAR afii9834
ENCODING 231
SWIDTH 568 0
DWIDTH 11 0
BBX 11 20 0 -5
BITMAP
0000
0000
0000
0000
0000
0000
3700
3980
3180
3180
3180
3180
3180
3180
3180
0180
0180
0180
0180
0000
ENDCHAR

STARTCHAR afii9835
ENCODING 232
SWIDTH 568 0
DWIDTH 11 0
BBX 11 20 0 -5
BITMAP
0000
0000
0000
1F00
3180
60C0
60C0
60C0
7FC0
60C0
60C0
60C0
60C0
3180
1F00
0000
0000
0000
0000
0000
ENDCHAR

STARTCHAR afii9836
ENCODING 233
SWIDTH 568 0
DWIDTH 11 0
BBX 11 20 0 -5
BITMAP
0000
0000
0000
0000
0000
0000
1E00
0600
0600
0600
0600
0600
0600
0600
3FC0
0000
0000
0000
0000
0000
ENDCHAR

STARTCHAR afii9837
ENCODING 234
SWIDTH 563 0
DWIDTH 11 0
BBX 11 20 0 -5
BITMAP
0000
0000
0000
0000
0000
0000
31C0
3180
3300
3600
3C00
3600
3300
3180
31C0
0000
0000
0000
0000
0000
ENDCHAR

STARTCHAR afii9838
ENCODING 235
SWIDTH 568 0
DWIDTH 11 0
BBX 11 20 0 -5
BITMAP
0000
0000
0000
1800
1800
0C00
0C00
0E00
1B00
1B00
1B00
3180
3180
60C0
60C0
0000
0000
0000
0000
0000
ENDCHAR

STARTCHAR afii9839
ENCODING 236
SWIDTH 568 0
DWIDTH 11 0
BBX 11 20 0 -5
BITMAP
0000
0000
0000
0000
0000
0000
3180
3180
3180
3180
3180
3180
3180
3380
3D80
3000
3000
3000
3000
0000
ENDCHAR

STARTCHAR afii9840
ENCODING 237
SWIDTH 568 0
DWIDTH 11 0
BBX 11 20 0 -5
BITMAP
0000
0000
0000
0000
0000
0000
30C0
30C0
30C0
1980
1980
0900
0F00
0600
0600
0000
0000
0000
0000
0000
ENDCHAR

STARTCHAR afii9841
ENCODING 238
SWIDTH 568 0
DWIDTH 11 0
BBX 11 20 0 -5
BITMAP
0000
0000
0000
0000
0780
0C00
1800
1800
0C00
0700
0C00
1800
3000
3000
1800
0F80
00C0
00C0
0780
0000
ENDCHAR

STARTCHAR afii9842
ENCODING 239
SWIDTH 568 0
DWIDTH 11 0
BBX 11 20 0 -5
BITMAP
0000
0000
0000
0000
0000
0000
1F00
3180
60C0
60C0
60C0
60C0
60C0
3180
1F00
0000
0000
0000
0000
0000
ENDCHAR

STARTCHAR afii9843
ENCODING 240
SWIDTH 568 0
DWIDTH 11 0
BBX 11 20 0 -5
BITMAP
0000
0000
0000
0000
0000
0000
7FC0
3180
3180
3180
3180
3180
3180
3180
3180
0000
0000
0000
0000
0000
ENDCHAR

STARTCHAR afii9845
ENCODING 241
SWIDTH 568 0
DWIDTH 11 0
BBX 11 20 0 -5
BITMAP
0000
0000
0000
0000
0000
0000
1F00
3180
30C0
30C0
30C0
30C0
30C0
3980
3700
3000
3000
3000
0000
0000
ENDCHAR

STARTCHAR afii9847
ENCODING 242
SWIDTH 568 0
DWIDTH 11 0
BBX 11 20 0 -5
BITMAP
0000
0000
0000
0000
0000
0000
0F80
18C0
3000
3000
3000
3000
3000
1800
0F00
0180
0180
0700
0000
0000
ENDCHAR

STARTCHAR afii9846
ENCODING 243
SWIDTH 568 0
DWIDTH 11 0
BBX 11 20 0 -5
BITMAP
0000
0000
0000
0000
0000
0000
1FE0
3180
60C0
60C0
60C0
60C0
60C0
3180
1F00
0000
0000
0000
0000
0000
ENDCHAR

STARTCHAR afii9848
ENCODING 244
SWIDTH 568 0
DWIDTH 11 0
BBX 11 20 0 -5
BITMAP
0000
0000
0000
0000
0000
0000
3FC0
0600
0600
0600
0600
0600
0600
0600
0600
0000
0000
0000
0000
0000
ENDCHAR

STARTCHAR afii9849
ENCODING 245
SWIDTH 568 0
DWIDTH 11 0
BBX 11 20 0 -5
BITMAP
0000
0000
0000
0000
0000
0000
3180
3180
3180
3180
3180
3180
3180
3180
1F00
0000
0000
0000
0000
0000
ENDCHAR

STARTCHAR afii9850
ENCODING 246
SWIDTH 568 0
DWIDTH 11 0
BBX 11 20 0 -5
BITMAP
0000
0000
0000
0000
0000
0000
1B80
36C0
6660
6660
6660
6660
6660
36C0
1F80
0600
0600
0600
0600
0000
ENDCHAR

STARTCHAR afii9851
ENCODING 247
SWIDTH 568 0
DWIDTH 11 0
BBX 11 20 0 -5
BITMAP
0000
0000
0000
0000
0000
0000
6180
6180
3300
1B00
0E00
0E00
0C00
0E00
0E00
1B00
1B00
3180
60C0
0000
ENDCHAR

STARTCHAR afii9852
ENCODING 248
SWIDTH 568 0
DWIDTH 11 0
BBX 11 20 0 -5
BITMAP
0000
0000
0000
0000
0000
0000
36C0
36C0
36C0
36C0
36C0
36C0
36C0
36C0
1F80
0600
0600
0600
0600
0000
ENDCHAR

STARTCHAR afii9853
ENCODING 249
SWIDTH 568 0
DWIDTH 11 0
BBX 11 20 0 -5
BITMAP
0000
0000
0000
0000
0000
0000
1980
30C0
3060
6060
6660
6660
6660
36C0
1DC0
0000
0000
0000
0000
0000
ENDCHAR

STARTCHAR afii9975
ENCODING 250
SWIDTH 568 0
DWIDTH 11 0
BBX 11 20 0 -5
BITMAP
0000
0000
0000
3180
3180
0000
1E00
0600
0600
0600
0600
0600
0600
0600
3FC0
0000
0000
0000
0000
0000
ENDCHAR

STARTCHAR afii9976
ENCODING 251
SWIDTH 568 0
DWIDTH 11 0
BBX 11 20 0 -5
BITMAP
0000
0000
0000
3180
3180
0000
3180
3180
3180
3180
3180
3180
3180
3180
1F00
0000
0000
0000
0000
0000
ENDCHAR

STARTCHAR afii9972
ENCODING 252
SWIDTH 568 0
DWIDTH 11 0
BBX 11 20 0 -5
BITMAP
0000
0000
0380
0600
0800
0000
1F00
3180
60C0
60C0
60C0
60C0
60C0
3180
1F00
0000
0000
0000
0000
0000
ENDCHAR

STARTCHAR afii9973
ENCODING 253
SWIDTH 568 0
DWIDTH 11 0
BBX 11 20 0 -5
BITMAP
0000
0000
0380
0600
0800
0000
3180
3180
3180
3180
3180
3180
3180
3180
1F00
0000
0000
0000
0000
0000
ENDCHAR

STARTCHAR afii9974
ENCODING 254
SWIDTH 568 0
DWIDTH 11 0
BBX 11 20 0 -5
BITMAP
0000
0000
0380
0600
0800
0000
1980
30C0
3060
6060
6660
6660
6660
36C0
1DC0
0000
0000
0000
0000
0000
ENDCHAR
ENDFONT
